# xmcd
#
# Track frame offsets:
#	150
#	11085
#	18417
#	34147
#	52210
#	62745
#	68782
#	84322
#	96277
#	102905
#
# Disc length: 1537 seconds
#
# Revision: 5
# Processed by: cddbd v1.5PL3 Copyright (c) Steve Scherf et al.
# Submitted via: audiograbber 1.83.01
#
DISCID=8105ff0a
DTITLE=Hank Williams - Live At The Grand Ole Opry [CD 2 - Complete AFRS Show #1
DTITLE=16, 18 Feb 1950)
DYEAR=1950
DGENRE=Country
TTITLE0=Red Foley - Aunt Jemima's Plaster
TTITLE1=Wally Flower and The Oak Ridge Quartet - Lead Me To That Rock
TTITLE2=Hank Williams - I Just Don't Like This Kind Of Livin'
TTITLE3=Minnie Pearl - Comedy with Minnie Pearl
TTITLE4=Red Foley - Lord, I'm Coming Home
TTITLE5=Claude Sharpe and The Old Hickory Singers - Oh, You Beautiful Doll
TTITLE6=Jamup and Honey - Comedy with Jamup and Honey
TTITLE7=Hank Williams - Lovesick Blues
TTITLE8=Wally Flower and The Oak Ridge Quartet - You Ain't Got No Faith
TTITLE9=Red Foley - Church Music
EXTD=Released on CD in 1999
EXTT0=
EXTT1=
EXTT2=
EXTT3=
EXTT4=
EXTT5=
EXTT6=
EXTT7=
EXTT8=
EXTT9=
PLAYORDER=
